<mxfile host="Electron" modified="2024-01-17T11:02:10.583Z" agent="Mozilla/5.0 (X11; Linux x86_64) AppleWebKit/537.36 (KHTML, like Gecko) draw.io/22.1.18 Chrome/120.0.6099.199 Electron/28.1.2 Safari/537.36" etag="mqfxnljl4BWMlaFnySZ3" version="22.1.18" type="device">
  <diagram name="Page-1" id="03018318-947c-dd8e-b7a3-06fadd420f32">
    <mxGraphModel dx="838" dy="570" grid="1" gridSize="10" guides="1" tooltips="1" connect="1" arrows="1" fold="1" page="1" pageScale="1" pageWidth="1100" pageHeight="850" background="none" math="0" shadow="0">
      <root>
        <mxCell id="0" />
        <mxCell id="1" parent="0" />
        <mxCell id="C1e1vfxv2G_DPCCN7vQN-2" value="" style="strokeWidth=1;shadow=0;dashed=0;align=center;html=1;shape=mxgraph.mockup.containers.browserWindow;rSize=0;strokeColor2=#008cff;strokeColor3=#c4c4c4;mainText=,;recursiveResize=0;" parent="1" vertex="1">
          <mxGeometry x="40" y="40" width="960" height="660" as="geometry" />
        </mxCell>
        <mxCell id="C1e1vfxv2G_DPCCN7vQN-3" value="Page 1" style="strokeWidth=1;shadow=0;dashed=0;align=center;html=1;shape=mxgraph.mockup.containers.anchor;fontSize=17;fontColor=#666666;align=left;whiteSpace=wrap;" parent="C1e1vfxv2G_DPCCN7vQN-2" vertex="1">
          <mxGeometry x="60" y="12" width="110" height="26" as="geometry" />
        </mxCell>
        <mxCell id="C1e1vfxv2G_DPCCN7vQN-4" value="https://www.draw.io" style="strokeWidth=1;shadow=0;dashed=0;align=center;html=1;shape=mxgraph.mockup.containers.anchor;rSize=0;fontSize=17;fontColor=#666666;align=left;" parent="C1e1vfxv2G_DPCCN7vQN-2" vertex="1">
          <mxGeometry x="130" y="60" width="250" height="26" as="geometry" />
        </mxCell>
        <mxCell id="C1e1vfxv2G_DPCCN7vQN-8" value="" style="rounded=0;whiteSpace=wrap;html=1;fontFamily=Times New Roman;" parent="C1e1vfxv2G_DPCCN7vQN-2" vertex="1">
          <mxGeometry y="110" width="960" height="60" as="geometry" />
        </mxCell>
        <mxCell id="C1e1vfxv2G_DPCCN7vQN-12" value="PLAN_4U" style="strokeWidth=1;shadow=0;dashed=0;align=center;html=1;shape=mxgraph.mockup.buttons.button;mainText=;buttonStyle=round;fontSize=17;fontStyle=1;fillColor=none;whiteSpace=wrap;strokeColor=none;fontFamily=Times New Roman;" parent="C1e1vfxv2G_DPCCN7vQN-2" vertex="1">
          <mxGeometry x="20" y="115" width="90" height="50" as="geometry" />
        </mxCell>
        <mxCell id="C1e1vfxv2G_DPCCN7vQN-13" value="Calendar" style="strokeWidth=1;shadow=0;dashed=0;align=center;html=1;shape=mxgraph.mockup.buttons.button;mainText=;buttonStyle=round;fontSize=17;fontStyle=1;fillColor=none;whiteSpace=wrap;strokeColor=none;fontFamily=Times New Roman;" parent="C1e1vfxv2G_DPCCN7vQN-2" vertex="1">
          <mxGeometry x="850" y="115" width="90" height="50" as="geometry" />
        </mxCell>
        <mxCell id="C1e1vfxv2G_DPCCN7vQN-14" value="Schedule" style="strokeWidth=1;shadow=0;dashed=0;align=center;html=1;shape=mxgraph.mockup.buttons.button;mainText=;buttonStyle=round;fontSize=17;fontStyle=1;fillColor=none;whiteSpace=wrap;strokeColor=none;fontFamily=Times New Roman;" parent="C1e1vfxv2G_DPCCN7vQN-2" vertex="1">
          <mxGeometry x="740" y="115" width="100" height="50" as="geometry" />
        </mxCell>
        <mxCell id="C1e1vfxv2G_DPCCN7vQN-15" value="Todo" style="swimlane;align=left;startSize=55;spacingLeft=12;fontSize=24;fontFamily=Times New Roman;" parent="C1e1vfxv2G_DPCCN7vQN-2" vertex="1">
          <mxGeometry x="15" y="185" width="200" height="455" as="geometry" />
        </mxCell>
        <mxCell id="RMreBUKn-xLIrHhaN0wt-96" value="&lt;b style=&quot;&quot;&gt;&lt;font style=&quot;font-size: 14px;&quot;&gt;Description for task 1&lt;/font&gt;&lt;/b&gt;" style="html=1;shadow=0;dashed=0;shape=mxgraph.bootstrap.rrect;rSize=5;strokeColor=#2C3136;html=1;whiteSpace=wrap;fillColor=#343A40;fontColor=#ffffff;verticalAlign=bottom;align=left;spacing=20;spacingBottom=0;fontSize=14;fontFamily=Times New Roman;" parent="C1e1vfxv2G_DPCCN7vQN-15" vertex="1">
          <mxGeometry x="5" y="67.5" width="185" height="92.5" as="geometry" />
        </mxCell>
        <mxCell id="RMreBUKn-xLIrHhaN0wt-97" value="&lt;b&gt;Task 1&lt;/b&gt;" style="html=1;shadow=0;dashed=0;shape=mxgraph.bootstrap.topButton;rSize=5;perimeter=none;whiteSpace=wrap;fillColor=#a20025;strokeColor=#6F0000;fontColor=#ffffff;resizeWidth=1;fontSize=18;align=left;spacing=20;fontFamily=Times New Roman;opacity=50;" parent="RMreBUKn-xLIrHhaN0wt-96" vertex="1">
          <mxGeometry width="185" height="50" relative="1" as="geometry" />
        </mxCell>
        <mxCell id="C1e1vfxv2G_DPCCN7vQN-16" value="In progress" style="swimlane;align=left;startSize=55;spacingLeft=12;fontSize=24;fontFamily=Times New Roman;" parent="C1e1vfxv2G_DPCCN7vQN-2" vertex="1">
          <mxGeometry x="230" y="185" width="200" height="455" as="geometry" />
        </mxCell>
        <mxCell id="RMreBUKn-xLIrHhaN0wt-98" value="&lt;b style=&quot;&quot;&gt;&lt;font style=&quot;font-size: 14px;&quot;&gt;Description for task 1&lt;/font&gt;&lt;/b&gt;" style="html=1;shadow=0;dashed=0;shape=mxgraph.bootstrap.rrect;rSize=5;strokeColor=#2C3136;html=1;whiteSpace=wrap;fillColor=#343A40;fontColor=#ffffff;verticalAlign=bottom;align=left;spacing=20;spacingBottom=0;fontSize=14;fontFamily=Times New Roman;" parent="C1e1vfxv2G_DPCCN7vQN-16" vertex="1">
          <mxGeometry x="7.5" y="67.5" width="185" height="92.5" as="geometry" />
        </mxCell>
        <mxCell id="RMreBUKn-xLIrHhaN0wt-99" value="&lt;b&gt;Task 2&lt;/b&gt;" style="html=1;shadow=0;dashed=0;shape=mxgraph.bootstrap.topButton;rSize=5;perimeter=none;whiteSpace=wrap;fillColor=#e3c800;strokeColor=#B09500;fontColor=#000000;resizeWidth=1;fontSize=18;align=left;spacing=20;fontFamily=Times New Roman;fillStyle=auto;gradientColor=none;opacity=50;" parent="RMreBUKn-xLIrHhaN0wt-98" vertex="1">
          <mxGeometry width="185" height="50" relative="1" as="geometry" />
        </mxCell>
        <mxCell id="RMreBUKn-xLIrHhaN0wt-102" value="&lt;b style=&quot;&quot;&gt;&lt;font style=&quot;font-size: 14px;&quot;&gt;Description for task 1&lt;/font&gt;&lt;/b&gt;" style="html=1;shadow=0;dashed=0;shape=mxgraph.bootstrap.rrect;rSize=5;strokeColor=#2C3136;html=1;whiteSpace=wrap;fillColor=#343A40;fontColor=#ffffff;verticalAlign=bottom;align=left;spacing=20;spacingBottom=0;fontSize=14;fontFamily=Times New Roman;" parent="C1e1vfxv2G_DPCCN7vQN-16" vertex="1">
          <mxGeometry x="7.5" y="181.25" width="185" height="92.5" as="geometry" />
        </mxCell>
        <mxCell id="RMreBUKn-xLIrHhaN0wt-103" value="&lt;b&gt;Task 4&lt;/b&gt;" style="html=1;shadow=0;dashed=0;shape=mxgraph.bootstrap.topButton;rSize=5;perimeter=none;whiteSpace=wrap;fillColor=#e3c800;strokeColor=#B09500;fontColor=#000000;resizeWidth=1;fontSize=18;align=left;spacing=20;fontFamily=Times New Roman;fillStyle=auto;gradientColor=none;opacity=50;" parent="RMreBUKn-xLIrHhaN0wt-102" vertex="1">
          <mxGeometry width="185" height="50" relative="1" as="geometry" />
        </mxCell>
        <mxCell id="C1e1vfxv2G_DPCCN7vQN-17" value="Done" style="swimlane;align=left;startSize=55;spacingLeft=12;fontSize=24;fontFamily=Times New Roman;" parent="C1e1vfxv2G_DPCCN7vQN-2" vertex="1">
          <mxGeometry x="450" y="185" width="200" height="455" as="geometry" />
        </mxCell>
        <mxCell id="RMreBUKn-xLIrHhaN0wt-100" value="&lt;b style=&quot;&quot;&gt;&lt;font style=&quot;font-size: 14px;&quot;&gt;Description for task 1&lt;/font&gt;&lt;/b&gt;" style="html=1;shadow=0;dashed=0;shape=mxgraph.bootstrap.rrect;rSize=5;strokeColor=#2C3136;html=1;whiteSpace=wrap;fillColor=#343A40;fontColor=#ffffff;verticalAlign=bottom;align=left;spacing=20;spacingBottom=0;fontSize=14;fontFamily=Times New Roman;" parent="C1e1vfxv2G_DPCCN7vQN-17" vertex="1">
          <mxGeometry x="7.5" y="67.5" width="185" height="92.5" as="geometry" />
        </mxCell>
        <mxCell id="RMreBUKn-xLIrHhaN0wt-101" value="&lt;b&gt;Task 3&lt;/b&gt;" style="html=1;shadow=0;dashed=0;shape=mxgraph.bootstrap.topButton;rSize=5;perimeter=none;whiteSpace=wrap;fillColor=#008a00;strokeColor=#005700;fontColor=#ffffff;resizeWidth=1;fontSize=18;align=left;spacing=20;fontFamily=Times New Roman;opacity=50;" parent="RMreBUKn-xLIrHhaN0wt-100" vertex="1">
          <mxGeometry width="185" height="50" relative="1" as="geometry" />
        </mxCell>
        <mxCell id="RMreBUKn-xLIrHhaN0wt-12" value="Task Detail" style="swimlane;align=left;startSize=55;spacingLeft=12;fontSize=24;fontFamily=Times New Roman;" parent="C1e1vfxv2G_DPCCN7vQN-2" vertex="1">
          <mxGeometry x="670" y="185" width="270" height="455" as="geometry" />
        </mxCell>
        <mxCell id="RMreBUKn-xLIrHhaN0wt-21" value="Status" style="html=1;shadow=0;dashed=0;shape=mxgraph.bootstrap.rrect;rSize=5;strokeWidth=0;whiteSpace=wrap;align=left;verticalAlign=middle;spacingRight=20;strokeColor=default;fontFamily=Times New Roman;fontSize=17;" parent="RMreBUKn-xLIrHhaN0wt-12" vertex="1">
          <mxGeometry x="111.71" y="107.5" width="140" height="40" as="geometry" />
        </mxCell>
        <mxCell id="RMreBUKn-xLIrHhaN0wt-22" value="" style="shape=triangle;direction=south;fillColor=#ffffff;strokeColor=none;perimeter=none;fontFamily=Times New Roman;" parent="RMreBUKn-xLIrHhaN0wt-21" vertex="1">
          <mxGeometry x="1" y="0.5" width="10" height="5" relative="1" as="geometry">
            <mxPoint x="-17" y="-2.5" as="offset" />
          </mxGeometry>
        </mxCell>
        <mxCell id="RMreBUKn-xLIrHhaN0wt-28" value="" style="strokeWidth=1;shadow=0;dashed=0;align=center;html=1;shape=mxgraph.mockup.forms.rrect;rSize=5;strokeColor=#999999;fillColor=#ffffff;fontFamily=Times New Roman;" parent="RMreBUKn-xLIrHhaN0wt-12" vertex="1">
          <mxGeometry x="110" y="205" width="141.71" height="155" as="geometry" />
        </mxCell>
        <mxCell id="RMreBUKn-xLIrHhaN0wt-29" value="October 2014" style="strokeWidth=1;shadow=0;dashed=0;align=center;html=1;shape=mxgraph.mockup.forms.anchor;fontColor=#999999;fontFamily=Times New Roman;" parent="RMreBUKn-xLIrHhaN0wt-28" vertex="1">
          <mxGeometry x="26.570625000000003" y="7.085714285714285" width="88.56875000000001" height="17.714285714285715" as="geometry" />
        </mxCell>
        <mxCell id="RMreBUKn-xLIrHhaN0wt-30" value="&amp;lt;" style="strokeWidth=1;shadow=0;dashed=0;align=center;html=1;shape=mxgraph.mockup.forms.rrect;rSize=4;strokeColor=#999999;fontColor=#008cff;fontSize=19;fontStyle=1;fontFamily=Times New Roman;" parent="RMreBUKn-xLIrHhaN0wt-28" vertex="1">
          <mxGeometry x="7.085500000000001" y="7.085714285714285" width="22.142187500000002" height="17.714285714285715" as="geometry" />
        </mxCell>
        <mxCell id="RMreBUKn-xLIrHhaN0wt-31" value="&amp;gt;" style="strokeWidth=1;shadow=0;dashed=0;align=center;html=1;shape=mxgraph.mockup.forms.rrect;rSize=4;strokeColor=#999999;fontColor=#008cff;fontSize=19;fontStyle=1;fontFamily=Times New Roman;" parent="RMreBUKn-xLIrHhaN0wt-28" vertex="1">
          <mxGeometry x="112.4823125" y="7.085714285714285" width="22.142187500000002" height="17.714285714285715" as="geometry" />
        </mxCell>
        <mxCell id="RMreBUKn-xLIrHhaN0wt-32" value="Mo" style="strokeWidth=1;shadow=0;dashed=0;align=center;html=1;shape=mxgraph.mockup.forms.anchor;fontColor=#999999;fontFamily=Times New Roman;" parent="RMreBUKn-xLIrHhaN0wt-28" vertex="1">
          <mxGeometry x="8.856875" y="24.799999999999997" width="17.71375" height="17.714285714285715" as="geometry" />
        </mxCell>
        <mxCell id="RMreBUKn-xLIrHhaN0wt-33" value="Tu" style="strokeWidth=1;shadow=0;dashed=0;align=center;html=1;shape=mxgraph.mockup.forms.anchor;fontColor=#999999;fontFamily=Times New Roman;" parent="RMreBUKn-xLIrHhaN0wt-28" vertex="1">
          <mxGeometry x="26.570625000000003" y="24.799999999999997" width="17.71375" height="17.714285714285715" as="geometry" />
        </mxCell>
        <mxCell id="RMreBUKn-xLIrHhaN0wt-34" value="We" style="strokeWidth=1;shadow=0;dashed=0;align=center;html=1;shape=mxgraph.mockup.forms.anchor;fontColor=#999999;fontFamily=Times New Roman;" parent="RMreBUKn-xLIrHhaN0wt-28" vertex="1">
          <mxGeometry x="44.284375000000004" y="24.799999999999997" width="17.71375" height="17.714285714285715" as="geometry" />
        </mxCell>
        <mxCell id="RMreBUKn-xLIrHhaN0wt-35" value="Th" style="strokeWidth=1;shadow=0;dashed=0;align=center;html=1;shape=mxgraph.mockup.forms.anchor;fontColor=#999999;fontFamily=Times New Roman;" parent="RMreBUKn-xLIrHhaN0wt-28" vertex="1">
          <mxGeometry x="61.998125" y="24.799999999999997" width="17.71375" height="17.714285714285715" as="geometry" />
        </mxCell>
        <mxCell id="RMreBUKn-xLIrHhaN0wt-36" value="Fr" style="strokeWidth=1;shadow=0;dashed=0;align=center;html=1;shape=mxgraph.mockup.forms.anchor;fontColor=#999999;fontFamily=Times New Roman;" parent="RMreBUKn-xLIrHhaN0wt-28" vertex="1">
          <mxGeometry x="79.711875" y="24.799999999999997" width="17.71375" height="17.714285714285715" as="geometry" />
        </mxCell>
        <mxCell id="RMreBUKn-xLIrHhaN0wt-37" value="Sa" style="strokeWidth=1;shadow=0;dashed=0;align=center;html=1;shape=mxgraph.mockup.forms.anchor;fontColor=#999999;fontFamily=Times New Roman;" parent="RMreBUKn-xLIrHhaN0wt-28" vertex="1">
          <mxGeometry x="97.42562500000001" y="24.799999999999997" width="17.71375" height="17.714285714285715" as="geometry" />
        </mxCell>
        <mxCell id="RMreBUKn-xLIrHhaN0wt-38" value="Su" style="strokeWidth=1;shadow=0;dashed=0;align=center;html=1;shape=mxgraph.mockup.forms.anchor;fontColor=#999999;fontFamily=Times New Roman;" parent="RMreBUKn-xLIrHhaN0wt-28" vertex="1">
          <mxGeometry x="115.13937500000002" y="24.799999999999997" width="17.71375" height="17.714285714285715" as="geometry" />
        </mxCell>
        <mxCell id="RMreBUKn-xLIrHhaN0wt-39" value="1" style="strokeWidth=1;shadow=0;dashed=0;align=center;html=1;shape=mxgraph.mockup.forms.rrect;rSize=0;strokeColor=#999999;fontColor=#999999;fontFamily=Times New Roman;" parent="RMreBUKn-xLIrHhaN0wt-28" vertex="1">
          <mxGeometry x="8.856875" y="42.51428571428571" width="17.71375" height="17.714285714285715" as="geometry" />
        </mxCell>
        <mxCell id="RMreBUKn-xLIrHhaN0wt-40" value="2" style="strokeWidth=1;shadow=0;dashed=0;align=center;html=1;shape=mxgraph.mockup.forms.rrect;rSize=0;strokeColor=#999999;fontColor=#999999;fontFamily=Times New Roman;" parent="RMreBUKn-xLIrHhaN0wt-28" vertex="1">
          <mxGeometry x="26.570625000000003" y="42.51428571428571" width="17.71375" height="17.714285714285715" as="geometry" />
        </mxCell>
        <mxCell id="RMreBUKn-xLIrHhaN0wt-41" value="3" style="strokeWidth=1;shadow=0;dashed=0;align=center;html=1;shape=mxgraph.mockup.forms.rrect;rSize=0;strokeColor=#999999;fontColor=#999999;fontFamily=Times New Roman;" parent="RMreBUKn-xLIrHhaN0wt-28" vertex="1">
          <mxGeometry x="44.284375000000004" y="42.51428571428571" width="17.71375" height="17.714285714285715" as="geometry" />
        </mxCell>
        <mxCell id="RMreBUKn-xLIrHhaN0wt-42" value="4" style="strokeWidth=1;shadow=0;dashed=0;align=center;html=1;shape=mxgraph.mockup.forms.rrect;rSize=0;strokeColor=#999999;fontColor=#999999;fontFamily=Times New Roman;" parent="RMreBUKn-xLIrHhaN0wt-28" vertex="1">
          <mxGeometry x="61.998125" y="42.51428571428571" width="17.71375" height="17.714285714285715" as="geometry" />
        </mxCell>
        <mxCell id="RMreBUKn-xLIrHhaN0wt-43" value="5" style="strokeWidth=1;shadow=0;dashed=0;align=center;html=1;shape=mxgraph.mockup.forms.rrect;rSize=0;strokeColor=#999999;fontColor=#999999;fontFamily=Times New Roman;" parent="RMreBUKn-xLIrHhaN0wt-28" vertex="1">
          <mxGeometry x="79.711875" y="42.51428571428571" width="17.71375" height="17.714285714285715" as="geometry" />
        </mxCell>
        <mxCell id="RMreBUKn-xLIrHhaN0wt-44" value="6" style="strokeWidth=1;shadow=0;dashed=0;align=center;html=1;shape=mxgraph.mockup.forms.rrect;rSize=0;strokeColor=#999999;fontColor=#999999;fontFamily=Times New Roman;" parent="RMreBUKn-xLIrHhaN0wt-28" vertex="1">
          <mxGeometry x="97.42562500000001" y="42.51428571428571" width="17.71375" height="17.714285714285715" as="geometry" />
        </mxCell>
        <mxCell id="RMreBUKn-xLIrHhaN0wt-45" value="7" style="strokeWidth=1;shadow=0;dashed=0;align=center;html=1;shape=mxgraph.mockup.forms.rrect;rSize=0;strokeColor=#999999;fontColor=#999999;fontFamily=Times New Roman;" parent="RMreBUKn-xLIrHhaN0wt-28" vertex="1">
          <mxGeometry x="115.13937500000002" y="42.51428571428571" width="17.71375" height="17.714285714285715" as="geometry" />
        </mxCell>
        <mxCell id="RMreBUKn-xLIrHhaN0wt-46" value="8" style="strokeWidth=1;shadow=0;dashed=0;align=center;html=1;shape=mxgraph.mockup.forms.rrect;rSize=0;strokeColor=#999999;fontColor=#999999;fontFamily=Times New Roman;" parent="RMreBUKn-xLIrHhaN0wt-28" vertex="1">
          <mxGeometry x="8.856875" y="60.22857142857143" width="17.71375" height="17.714285714285715" as="geometry" />
        </mxCell>
        <mxCell id="RMreBUKn-xLIrHhaN0wt-47" value="9" style="strokeWidth=1;shadow=0;dashed=0;align=center;html=1;shape=mxgraph.mockup.forms.rrect;rSize=0;strokeColor=#999999;fontColor=#999999;fontFamily=Times New Roman;" parent="RMreBUKn-xLIrHhaN0wt-28" vertex="1">
          <mxGeometry x="26.570625000000003" y="60.22857142857143" width="17.71375" height="17.714285714285715" as="geometry" />
        </mxCell>
        <mxCell id="RMreBUKn-xLIrHhaN0wt-48" value="10" style="strokeWidth=1;shadow=0;dashed=0;align=center;html=1;shape=mxgraph.mockup.forms.rrect;rSize=0;strokeColor=#999999;fontColor=#999999;fontFamily=Times New Roman;" parent="RMreBUKn-xLIrHhaN0wt-28" vertex="1">
          <mxGeometry x="44.284375000000004" y="60.22857142857143" width="17.71375" height="17.714285714285715" as="geometry" />
        </mxCell>
        <mxCell id="RMreBUKn-xLIrHhaN0wt-49" value="11" style="strokeWidth=1;shadow=0;dashed=0;align=center;html=1;shape=mxgraph.mockup.forms.rrect;rSize=0;strokeColor=#999999;fontColor=#999999;fontFamily=Times New Roman;" parent="RMreBUKn-xLIrHhaN0wt-28" vertex="1">
          <mxGeometry x="61.998125" y="60.22857142857143" width="17.71375" height="17.714285714285715" as="geometry" />
        </mxCell>
        <mxCell id="RMreBUKn-xLIrHhaN0wt-50" value="12" style="strokeWidth=1;shadow=0;dashed=0;align=center;html=1;shape=mxgraph.mockup.forms.rrect;rSize=0;strokeColor=#999999;fontColor=#999999;fontFamily=Times New Roman;" parent="RMreBUKn-xLIrHhaN0wt-28" vertex="1">
          <mxGeometry x="79.711875" y="60.22857142857143" width="17.71375" height="17.714285714285715" as="geometry" />
        </mxCell>
        <mxCell id="RMreBUKn-xLIrHhaN0wt-51" value="13" style="strokeWidth=1;shadow=0;dashed=0;align=center;html=1;shape=mxgraph.mockup.forms.rrect;rSize=0;strokeColor=#999999;fontColor=#999999;fontFamily=Times New Roman;" parent="RMreBUKn-xLIrHhaN0wt-28" vertex="1">
          <mxGeometry x="97.42562500000001" y="60.22857142857143" width="17.71375" height="17.714285714285715" as="geometry" />
        </mxCell>
        <mxCell id="RMreBUKn-xLIrHhaN0wt-52" value="14" style="strokeWidth=1;shadow=0;dashed=0;align=center;html=1;shape=mxgraph.mockup.forms.rrect;rSize=0;strokeColor=#999999;fontColor=#999999;fontFamily=Times New Roman;" parent="RMreBUKn-xLIrHhaN0wt-28" vertex="1">
          <mxGeometry x="115.13937500000002" y="60.22857142857143" width="17.71375" height="17.714285714285715" as="geometry" />
        </mxCell>
        <mxCell id="RMreBUKn-xLIrHhaN0wt-53" value="15" style="strokeWidth=1;shadow=0;dashed=0;align=center;html=1;shape=mxgraph.mockup.forms.rrect;rSize=0;strokeColor=#999999;fontColor=#999999;fontFamily=Times New Roman;" parent="RMreBUKn-xLIrHhaN0wt-28" vertex="1">
          <mxGeometry x="8.856875" y="77.94285714285714" width="17.71375" height="17.714285714285715" as="geometry" />
        </mxCell>
        <mxCell id="RMreBUKn-xLIrHhaN0wt-54" value="16" style="strokeWidth=1;shadow=0;dashed=0;align=center;html=1;shape=mxgraph.mockup.forms.rrect;rSize=0;strokeColor=#999999;fontColor=#999999;fontFamily=Times New Roman;" parent="RMreBUKn-xLIrHhaN0wt-28" vertex="1">
          <mxGeometry x="26.570625000000003" y="77.94285714285714" width="17.71375" height="17.714285714285715" as="geometry" />
        </mxCell>
        <mxCell id="RMreBUKn-xLIrHhaN0wt-55" value="17" style="strokeWidth=1;shadow=0;dashed=0;align=center;html=1;shape=mxgraph.mockup.forms.rrect;rSize=0;strokeColor=#999999;fontColor=#999999;fontFamily=Times New Roman;" parent="RMreBUKn-xLIrHhaN0wt-28" vertex="1">
          <mxGeometry x="44.284375000000004" y="77.94285714285714" width="17.71375" height="17.714285714285715" as="geometry" />
        </mxCell>
        <mxCell id="RMreBUKn-xLIrHhaN0wt-56" value="18" style="strokeWidth=1;shadow=0;dashed=0;align=center;html=1;shape=mxgraph.mockup.forms.rrect;rSize=0;strokeColor=#999999;fontColor=#999999;fontFamily=Times New Roman;" parent="RMreBUKn-xLIrHhaN0wt-28" vertex="1">
          <mxGeometry x="61.998125" y="77.94285714285714" width="17.71375" height="17.714285714285715" as="geometry" />
        </mxCell>
        <mxCell id="RMreBUKn-xLIrHhaN0wt-57" value="19" style="strokeWidth=1;shadow=0;dashed=0;align=center;html=1;shape=mxgraph.mockup.forms.rrect;rSize=0;strokeColor=#999999;fontColor=#999999;fontFamily=Times New Roman;" parent="RMreBUKn-xLIrHhaN0wt-28" vertex="1">
          <mxGeometry x="79.711875" y="77.94285714285714" width="17.71375" height="17.714285714285715" as="geometry" />
        </mxCell>
        <mxCell id="RMreBUKn-xLIrHhaN0wt-58" value="20" style="strokeWidth=1;shadow=0;dashed=0;align=center;html=1;shape=mxgraph.mockup.forms.rrect;rSize=0;strokeColor=#999999;fontColor=#999999;fontFamily=Times New Roman;" parent="RMreBUKn-xLIrHhaN0wt-28" vertex="1">
          <mxGeometry x="97.42562500000001" y="77.94285714285714" width="17.71375" height="17.714285714285715" as="geometry" />
        </mxCell>
        <mxCell id="RMreBUKn-xLIrHhaN0wt-59" value="21" style="strokeWidth=1;shadow=0;dashed=0;align=center;html=1;shape=mxgraph.mockup.forms.rrect;rSize=0;strokeColor=#999999;fontColor=#999999;fontFamily=Times New Roman;" parent="RMreBUKn-xLIrHhaN0wt-28" vertex="1">
          <mxGeometry x="115.13937500000002" y="77.94285714285714" width="17.71375" height="17.714285714285715" as="geometry" />
        </mxCell>
        <mxCell id="RMreBUKn-xLIrHhaN0wt-60" value="22" style="strokeWidth=1;shadow=0;dashed=0;align=center;html=1;shape=mxgraph.mockup.forms.rrect;rSize=0;strokeColor=#999999;fontColor=#999999;fontFamily=Times New Roman;" parent="RMreBUKn-xLIrHhaN0wt-28" vertex="1">
          <mxGeometry x="8.856875" y="95.65714285714286" width="17.71375" height="17.714285714285715" as="geometry" />
        </mxCell>
        <mxCell id="RMreBUKn-xLIrHhaN0wt-61" value="23" style="strokeWidth=1;shadow=0;dashed=0;align=center;html=1;shape=mxgraph.mockup.forms.rrect;rSize=0;strokeColor=#999999;fontColor=#999999;fontFamily=Times New Roman;" parent="RMreBUKn-xLIrHhaN0wt-28" vertex="1">
          <mxGeometry x="26.570625000000003" y="95.65714285714286" width="17.71375" height="17.714285714285715" as="geometry" />
        </mxCell>
        <mxCell id="RMreBUKn-xLIrHhaN0wt-62" value="25" style="strokeWidth=1;shadow=0;dashed=0;align=center;html=1;shape=mxgraph.mockup.forms.rrect;rSize=0;strokeColor=#999999;fontColor=#999999;fontFamily=Times New Roman;" parent="RMreBUKn-xLIrHhaN0wt-28" vertex="1">
          <mxGeometry x="61.998125" y="95.65714285714286" width="17.71375" height="17.714285714285715" as="geometry" />
        </mxCell>
        <mxCell id="RMreBUKn-xLIrHhaN0wt-63" value="26" style="strokeWidth=1;shadow=0;dashed=0;align=center;html=1;shape=mxgraph.mockup.forms.rrect;rSize=0;strokeColor=#999999;fontColor=#999999;fontFamily=Times New Roman;" parent="RMreBUKn-xLIrHhaN0wt-28" vertex="1">
          <mxGeometry x="79.711875" y="95.65714285714286" width="17.71375" height="17.714285714285715" as="geometry" />
        </mxCell>
        <mxCell id="RMreBUKn-xLIrHhaN0wt-64" value="27" style="strokeWidth=1;shadow=0;dashed=0;align=center;html=1;shape=mxgraph.mockup.forms.rrect;rSize=0;strokeColor=#999999;fontColor=#999999;fontFamily=Times New Roman;" parent="RMreBUKn-xLIrHhaN0wt-28" vertex="1">
          <mxGeometry x="97.42562500000001" y="95.65714285714286" width="17.71375" height="17.714285714285715" as="geometry" />
        </mxCell>
        <mxCell id="RMreBUKn-xLIrHhaN0wt-65" value="28" style="strokeWidth=1;shadow=0;dashed=0;align=center;html=1;shape=mxgraph.mockup.forms.rrect;rSize=0;strokeColor=#999999;fontColor=#999999;fontFamily=Times New Roman;" parent="RMreBUKn-xLIrHhaN0wt-28" vertex="1">
          <mxGeometry x="115.13937500000002" y="95.65714285714286" width="17.71375" height="17.714285714285715" as="geometry" />
        </mxCell>
        <mxCell id="RMreBUKn-xLIrHhaN0wt-66" value="29" style="strokeWidth=1;shadow=0;dashed=0;align=center;html=1;shape=mxgraph.mockup.forms.rrect;rSize=0;strokeColor=#999999;fontColor=#999999;fontFamily=Times New Roman;" parent="RMreBUKn-xLIrHhaN0wt-28" vertex="1">
          <mxGeometry x="8.856875" y="113.37142857142857" width="17.71375" height="17.714285714285715" as="geometry" />
        </mxCell>
        <mxCell id="RMreBUKn-xLIrHhaN0wt-67" value="30" style="strokeWidth=1;shadow=0;dashed=0;align=center;html=1;shape=mxgraph.mockup.forms.rrect;rSize=0;strokeColor=#999999;fontColor=#999999;fontFamily=Times New Roman;" parent="RMreBUKn-xLIrHhaN0wt-28" vertex="1">
          <mxGeometry x="26.570625000000003" y="113.37142857142857" width="17.71375" height="17.714285714285715" as="geometry" />
        </mxCell>
        <mxCell id="RMreBUKn-xLIrHhaN0wt-68" value="31" style="strokeWidth=1;shadow=0;dashed=0;align=center;html=1;shape=mxgraph.mockup.forms.rrect;rSize=0;strokeColor=#999999;fontColor=#999999;fontFamily=Times New Roman;" parent="RMreBUKn-xLIrHhaN0wt-28" vertex="1">
          <mxGeometry x="44.284375000000004" y="113.37142857142857" width="17.71375" height="17.714285714285715" as="geometry" />
        </mxCell>
        <mxCell id="RMreBUKn-xLIrHhaN0wt-69" value="1" style="strokeWidth=1;shadow=0;dashed=0;align=center;html=1;shape=mxgraph.mockup.forms.rrect;rSize=0;strokeColor=#999999;fontColor=#999999;fillColor=#ddeeff;fontFamily=Times New Roman;" parent="RMreBUKn-xLIrHhaN0wt-28" vertex="1">
          <mxGeometry x="61.998125" y="113.37142857142857" width="17.71375" height="17.714285714285715" as="geometry" />
        </mxCell>
        <mxCell id="RMreBUKn-xLIrHhaN0wt-70" value="2" style="strokeWidth=1;shadow=0;dashed=0;align=center;html=1;shape=mxgraph.mockup.forms.rrect;rSize=0;strokeColor=#999999;fontColor=#999999;fillColor=#ddeeff;fontFamily=Times New Roman;" parent="RMreBUKn-xLIrHhaN0wt-28" vertex="1">
          <mxGeometry x="79.711875" y="113.37142857142857" width="17.71375" height="17.714285714285715" as="geometry" />
        </mxCell>
        <mxCell id="RMreBUKn-xLIrHhaN0wt-71" value="3" style="strokeWidth=1;shadow=0;dashed=0;align=center;html=1;shape=mxgraph.mockup.forms.rrect;rSize=0;strokeColor=#999999;fontColor=#999999;fillColor=#ddeeff;fontFamily=Times New Roman;" parent="RMreBUKn-xLIrHhaN0wt-28" vertex="1">
          <mxGeometry x="97.42562500000001" y="113.37142857142857" width="17.71375" height="17.714285714285715" as="geometry" />
        </mxCell>
        <mxCell id="RMreBUKn-xLIrHhaN0wt-72" value="4" style="strokeWidth=1;shadow=0;dashed=0;align=center;html=1;shape=mxgraph.mockup.forms.rrect;rSize=0;strokeColor=#999999;fontColor=#999999;fillColor=#ddeeff;fontFamily=Times New Roman;" parent="RMreBUKn-xLIrHhaN0wt-28" vertex="1">
          <mxGeometry x="115.13937500000002" y="113.37142857142857" width="17.71375" height="17.714285714285715" as="geometry" />
        </mxCell>
        <mxCell id="RMreBUKn-xLIrHhaN0wt-73" value="5" style="strokeWidth=1;shadow=0;dashed=0;align=center;html=1;shape=mxgraph.mockup.forms.rrect;rSize=0;strokeColor=#999999;fontColor=#999999;fillColor=#ddeeff;fontFamily=Times New Roman;" parent="RMreBUKn-xLIrHhaN0wt-28" vertex="1">
          <mxGeometry x="8.856875" y="131.0857142857143" width="17.71375" height="17.714285714285715" as="geometry" />
        </mxCell>
        <mxCell id="RMreBUKn-xLIrHhaN0wt-74" value="6" style="strokeWidth=1;shadow=0;dashed=0;align=center;html=1;shape=mxgraph.mockup.forms.rrect;rSize=0;strokeColor=#999999;fontColor=#999999;fillColor=#ddeeff;fontFamily=Times New Roman;" parent="RMreBUKn-xLIrHhaN0wt-28" vertex="1">
          <mxGeometry x="26.570625000000003" y="131.0857142857143" width="17.71375" height="17.714285714285715" as="geometry" />
        </mxCell>
        <mxCell id="RMreBUKn-xLIrHhaN0wt-75" value="7" style="strokeWidth=1;shadow=0;dashed=0;align=center;html=1;shape=mxgraph.mockup.forms.rrect;rSize=0;strokeColor=#999999;fontColor=#999999;fillColor=#ddeeff;fontFamily=Times New Roman;" parent="RMreBUKn-xLIrHhaN0wt-28" vertex="1">
          <mxGeometry x="44.284375000000004" y="131.0857142857143" width="17.71375" height="17.714285714285715" as="geometry" />
        </mxCell>
        <mxCell id="RMreBUKn-xLIrHhaN0wt-76" value="8" style="strokeWidth=1;shadow=0;dashed=0;align=center;html=1;shape=mxgraph.mockup.forms.rrect;rSize=0;strokeColor=#999999;fontColor=#999999;fillColor=#ddeeff;fontFamily=Times New Roman;" parent="RMreBUKn-xLIrHhaN0wt-28" vertex="1">
          <mxGeometry x="61.998125" y="131.0857142857143" width="17.71375" height="17.714285714285715" as="geometry" />
        </mxCell>
        <mxCell id="RMreBUKn-xLIrHhaN0wt-77" value="9" style="strokeWidth=1;shadow=0;dashed=0;align=center;html=1;shape=mxgraph.mockup.forms.rrect;rSize=0;strokeColor=#999999;fontColor=#999999;fillColor=#ddeeff;fontFamily=Times New Roman;" parent="RMreBUKn-xLIrHhaN0wt-28" vertex="1">
          <mxGeometry x="79.711875" y="131.0857142857143" width="17.71375" height="17.714285714285715" as="geometry" />
        </mxCell>
        <mxCell id="RMreBUKn-xLIrHhaN0wt-78" value="10" style="strokeWidth=1;shadow=0;dashed=0;align=center;html=1;shape=mxgraph.mockup.forms.rrect;rSize=0;strokeColor=#999999;fontColor=#999999;fillColor=#ddeeff;fontFamily=Times New Roman;" parent="RMreBUKn-xLIrHhaN0wt-28" vertex="1">
          <mxGeometry x="97.42562500000001" y="131.0857142857143" width="17.71375" height="17.714285714285715" as="geometry" />
        </mxCell>
        <mxCell id="RMreBUKn-xLIrHhaN0wt-79" value="11" style="strokeWidth=1;shadow=0;dashed=0;align=center;html=1;shape=mxgraph.mockup.forms.rrect;rSize=0;strokeColor=#999999;fontColor=#999999;fillColor=#ddeeff;fontFamily=Times New Roman;" parent="RMreBUKn-xLIrHhaN0wt-28" vertex="1">
          <mxGeometry x="115.13937500000002" y="131.0857142857143" width="17.71375" height="17.714285714285715" as="geometry" />
        </mxCell>
        <mxCell id="RMreBUKn-xLIrHhaN0wt-80" value="24" style="strokeWidth=1;shadow=0;dashed=0;align=center;html=1;shape=mxgraph.mockup.forms.rrect;rSize=0;strokeColor=#ff0000;fontColor=#ffffff;strokeWidth=2;fillColor=#008cff;fontFamily=Times New Roman;" parent="RMreBUKn-xLIrHhaN0wt-28" vertex="1">
          <mxGeometry x="44.284375000000004" y="95.65714285714286" width="17.71375" height="17.714285714285715" as="geometry" />
        </mxCell>
        <mxCell id="RMreBUKn-xLIrHhaN0wt-87" value="Title" style="strokeWidth=1;shadow=0;dashed=0;align=center;html=1;shape=mxgraph.mockup.text.textBox;fontColor=#FFFFFF;align=left;fontSize=17;spacingLeft=4;spacingTop=-3;whiteSpace=wrap;strokeColor=#666666;mainText=;fontFamily=Times New Roman;" parent="RMreBUKn-xLIrHhaN0wt-12" vertex="1">
          <mxGeometry x="110" y="67.5" width="141.71" height="30" as="geometry" />
        </mxCell>
        <mxCell id="RMreBUKn-xLIrHhaN0wt-88" value="Detail" style="strokeWidth=1;shadow=0;dashed=0;align=center;html=1;shape=mxgraph.mockup.text.textBox;fontColor=#FFFFFF;align=left;fontSize=17;spacingLeft=4;spacingTop=-3;whiteSpace=wrap;strokeColor=#666666;mainText=;fontFamily=Times New Roman;" parent="RMreBUKn-xLIrHhaN0wt-12" vertex="1">
          <mxGeometry x="111.71" y="158.75" width="140" height="30" as="geometry" />
        </mxCell>
        <mxCell id="RMreBUKn-xLIrHhaN0wt-86" value="&lt;font style=&quot;font-size: 20px;&quot;&gt;Save&lt;/font&gt;" style="html=1;shadow=0;dashed=0;shape=mxgraph.bootstrap.rrect;rSize=5;strokeColor=none;strokeWidth=1;fillColor=#33A64C;fontColor=#FFFFFF;whiteSpace=wrap;align=center;verticalAlign=middle;spacingLeft=0;fontStyle=1;fontSize=16;spacing=5;fontFamily=Times New Roman;" parent="RMreBUKn-xLIrHhaN0wt-12" vertex="1">
          <mxGeometry x="110" y="385" width="141.71" height="35" as="geometry" />
        </mxCell>
        <mxCell id="RMreBUKn-xLIrHhaN0wt-89" value="" style="strokeColor=#b85450;verticalLabelPosition=bottom;shadow=0;dashed=0;verticalAlign=top;strokeWidth=2;html=1;shape=mxgraph.mockup.misc.trashcanIcon;fontFamily=Times New Roman;fillColor=#f8cecc;" parent="RMreBUKn-xLIrHhaN0wt-12" vertex="1">
          <mxGeometry x="20" y="370" width="50" height="50" as="geometry" />
        </mxCell>
        <mxCell id="RMreBUKn-xLIrHhaN0wt-90" value="Title" style="strokeWidth=1;shadow=0;dashed=0;align=left;html=1;shape=mxgraph.mockup.text.textBox;fontColor=#FFFFFF;align=left;fontSize=17;spacingLeft=4;spacingTop=-3;whiteSpace=wrap;strokeColor=none;mainText=;fontFamily=Times New Roman;" parent="RMreBUKn-xLIrHhaN0wt-12" vertex="1">
          <mxGeometry x="10" y="67.5" width="50" height="30" as="geometry" />
        </mxCell>
        <mxCell id="RMreBUKn-xLIrHhaN0wt-91" value="Status" style="strokeWidth=1;shadow=0;dashed=0;align=center;html=1;shape=mxgraph.mockup.text.textBox;fontColor=#FFFFFF;align=left;fontSize=17;spacingLeft=4;spacingTop=-3;whiteSpace=wrap;strokeColor=none;mainText=;fontFamily=Times New Roman;" parent="RMreBUKn-xLIrHhaN0wt-12" vertex="1">
          <mxGeometry x="10" y="112.5" width="60" height="30" as="geometry" />
        </mxCell>
        <mxCell id="RMreBUKn-xLIrHhaN0wt-92" value="Detail" style="strokeWidth=1;shadow=0;dashed=0;align=center;html=1;shape=mxgraph.mockup.text.textBox;fontColor=#FFFFFF;align=left;fontSize=17;spacingLeft=4;spacingTop=-3;whiteSpace=wrap;strokeColor=none;mainText=;fontFamily=Times New Roman;" parent="RMreBUKn-xLIrHhaN0wt-12" vertex="1">
          <mxGeometry x="10" y="158.75" width="60" height="30" as="geometry" />
        </mxCell>
        <mxCell id="RMreBUKn-xLIrHhaN0wt-93" value="Deadline" style="strokeWidth=1;shadow=0;dashed=0;align=center;html=1;shape=mxgraph.mockup.text.textBox;fontColor=#FFFFFF;align=left;fontSize=17;spacingLeft=4;spacingTop=-3;whiteSpace=wrap;strokeColor=none;mainText=;fontFamily=Times New Roman;" parent="RMreBUKn-xLIrHhaN0wt-12" vertex="1">
          <mxGeometry x="10" y="205" width="80" height="30" as="geometry" />
        </mxCell>
      </root>
    </mxGraphModel>
  </diagram>
</mxfile>
